# Blender v3.0.1 OBJ File: 'assignment1.blend'
# www.blender.org
mtllib assignment1.mtl
o Cube_Cube.001
v 6.000000 0.015030 -1.000000
v 6.000000 2.015030 -1.000000
v 6.000000 0.015030 -3.000000
v 6.000000 2.015030 -3.000000
v 8.000000 0.015030 -1.000000
v 8.000000 2.015030 -1.000000
v 8.000000 0.015030 -3.000000
v 8.000000 2.015030 -3.000000
vt 0.375000 0.000000
vt 0.625000 0.000000
vt 0.625000 0.250000
vt 0.375000 0.250000
vt 0.625000 0.500000
vt 0.375000 0.500000
vt 0.625000 0.750000
vt 0.375000 0.750000
vt 0.625000 1.000000
vt 0.375000 1.000000
vt 0.125000 0.500000
vt 0.125000 0.750000
vt 0.875000 0.500000
vt 0.875000 0.750000
vn -1.0000 0.0000 0.0000
vn 0.0000 0.0000 -1.0000
vn 1.0000 0.0000 0.0000
vn 0.0000 0.0000 1.0000
vn 0.0000 -1.0000 0.0000
vn 0.0000 1.0000 0.0000
usemtl None
s off
f 1/1/1 2/2/1 4/3/1 3/4/1
f 3/4/2 4/3/2 8/5/2 7/6/2
f 7/6/3 8/5/3 6/7/3 5/8/3
f 5/8/4 6/7/4 2/9/4 1/10/4
f 3/11/5 7/6/5 5/8/5 1/12/5
f 8/5/6 4/13/6 2/14/6 6/7/6
o Cone_Cone.001
v 6.017122 2.018500 -2.982878
v 7.961665 2.018500 -2.961665
v 7.982878 2.018500 -1.017122
v 6.038335 2.018500 -1.038335
v 7.000000 3.418500 -2.000000
vt 0.250000 0.490000
vt 0.250000 0.250000
vt 0.490000 0.250000
vt 0.250000 0.010000
vt 0.750000 0.490000
vt 0.990000 0.250000
vt 0.750000 0.010000
vt 0.510000 0.250000
vt 0.010000 0.250000
vn 0.0090 0.5703 -0.8214
vn 0.8214 0.5703 -0.0090
vn 0.0000 -1.0000 0.0000
vn -0.0090 0.5703 0.8214
vn -0.8214 0.5703 0.0090
usemtl Material.001
s off
f 9/15/7 13/16/7 10/17/7
f 10/17/8 13/16/8 11/18/8
f 9/19/9 10/20/9 11/21/9 12/22/9
f 11/18/10 13/16/10 12/23/10
f 12/23/11 13/16/11 9/15/11
o Cube.001_Cube.002
v 6.600000 0.200000 1.360000
v 6.600000 1.800000 1.360000
v 6.600000 0.200000 -1.360000
v 6.600000 1.800000 -1.360000
v 7.400000 0.200000 1.360000
v 7.400000 1.800000 1.360000
v 7.400000 0.200000 -1.360000
v 7.400000 1.800000 -1.360000
vt 0.375000 0.000000
vt 0.625000 0.000000
vt 0.625000 0.250000
vt 0.375000 0.250000
vt 0.625000 0.500000
vt 0.375000 0.500000
vt 0.625000 0.750000
vt 0.375000 0.750000
vt 0.625000 1.000000
vt 0.375000 1.000000
vt 0.125000 0.500000
vt 0.125000 0.750000
vt 0.875000 0.500000
vt 0.875000 0.750000
vn -1.0000 0.0000 0.0000
vn 0.0000 0.0000 -1.0000
vn 1.0000 0.0000 0.0000
vn 0.0000 0.0000 1.0000
vn 0.0000 -1.0000 0.0000
vn 0.0000 1.0000 0.0000
usemtl None
s off
f 14/24/12 15/25/12 17/26/12 16/27/12
f 16/27/13 17/26/13 21/28/13 20/29/13
f 20/29/14 21/28/14 19/30/14 18/31/14
f 18/31/15 19/30/15 15/32/15 14/33/15
f 16/34/16 20/29/16 18/31/16 14/35/16
f 21/28/17 17/36/17 15/37/17 19/30/17
o Cone.003_Cone.005
v 6.017122 2.018500 1.017122
v 7.961665 2.018500 1.038335
v 7.982878 2.018500 2.982878
v 6.038335 2.018500 2.961665
v 7.000000 3.418500 2.000000
vt 0.250000 0.490000
vt 0.250000 0.250000
vt 0.490000 0.250000
vt 0.250000 0.010000
vt 0.750000 0.490000
vt 0.990000 0.250000
vt 0.750000 0.010000
vt 0.510000 0.250000
vt 0.010000 0.250000
vn 0.0090 0.5703 -0.8214
vn 0.8214 0.5703 -0.0090
vn 0.0000 -1.0000 0.0000
vn -0.0090 0.5703 0.8214
vn -0.8214 0.5703 0.0090
usemtl None
s off
f 22/38/18 26/39/18 23/40/18
f 23/40/19 26/39/19 24/41/19
f 22/42/20 23/43/20 24/44/20 25/45/20
f 24/41/21 26/39/21 25/46/21
f 25/46/22 26/39/22 22/38/22
o Cube.004_Cube.005
v 6.000000 0.015033 3.000000
v 6.000000 2.015033 3.000000
v 6.000000 0.015033 1.000000
v 6.000000 2.015033 1.000000
v 8.000000 0.015033 3.000000
v 8.000000 2.015033 3.000000
v 8.000000 0.015033 1.000000
v 8.000000 2.015033 1.000000
vt 0.375000 0.000000
vt 0.625000 0.000000
vt 0.625000 0.250000
vt 0.375000 0.250000
vt 0.625000 0.500000
vt 0.375000 0.500000
vt 0.625000 0.750000
vt 0.375000 0.750000
vt 0.625000 1.000000
vt 0.375000 1.000000
vt 0.125000 0.500000
vt 0.125000 0.750000
vt 0.875000 0.500000
vt 0.875000 0.750000
vn -1.0000 0.0000 0.0000
vn 0.0000 0.0000 -1.0000
vn 1.0000 0.0000 0.0000
vn 0.0000 0.0000 1.0000
vn 0.0000 -1.0000 0.0000
vn 0.0000 1.0000 0.0000
usemtl None
s off
f 27/47/23 28/48/23 30/49/23 29/50/23
f 29/50/24 30/49/24 34/51/24 33/52/24
f 33/52/25 34/51/25 32/53/25 31/54/25
f 31/54/26 32/53/26 28/55/26 27/56/26
f 29/57/27 33/52/27 31/54/27 27/58/27
f 34/51/28 30/59/28 28/60/28 32/53/28
o Cone.004_Cone.006
v 2.517122 2.018500 -5.482878
v 4.489950 2.018500 -5.489949
v 4.482878 2.018500 -3.517122
v 2.510051 2.018500 -3.510051
v 3.500000 3.418500 -4.500000
vt 0.250000 0.490000
vt 0.250000 0.250000
vt 0.490000 0.250000
vt 0.250000 0.010000
vt 0.750000 0.490000
vt 0.990000 0.250000
vt 0.750000 0.010000
vt 0.510000 0.250000
vt 0.010000 0.250000
vn -0.0029 0.5760 -0.8175
vn 0.8175 0.5760 0.0029
vn 0.0000 -1.0000 0.0000
vn 0.0029 0.5760 0.8175
vn -0.8175 0.5760 -0.0029
usemtl None
s off
f 35/61/29 39/62/29 36/63/29
f 36/63/30 39/62/30 37/64/30
f 35/65/31 36/66/31 37/67/31 38/68/31
f 37/64/32 39/62/32 38/69/32
f 38/69/33 39/62/33 35/61/33
o Cube.005_Cube.006
v 2.500000 0.015033 -3.500000
v 2.500000 2.015033 -3.500000
v 2.500000 0.015033 -5.500000
v 2.500000 2.015033 -5.500000
v 4.500000 0.015033 -3.500000
v 4.500000 2.015033 -3.500000
v 4.500000 0.015033 -5.500000
v 4.500000 2.015033 -5.500000
vt 0.375000 0.000000
vt 0.625000 0.000000
vt 0.625000 0.250000
vt 0.375000 0.250000
vt 0.625000 0.500000
vt 0.375000 0.500000
vt 0.625000 0.750000
vt 0.375000 0.750000
vt 0.625000 1.000000
vt 0.375000 1.000000
vt 0.125000 0.500000
vt 0.125000 0.750000
vt 0.875000 0.500000
vt 0.875000 0.750000
vn -1.0000 0.0000 0.0000
vn 0.0000 0.0000 -1.0000
vn 1.0000 0.0000 0.0000
vn 0.0000 0.0000 1.0000
vn 0.0000 -1.0000 0.0000
vn 0.0000 1.0000 0.0000
usemtl None
s off
f 40/70/34 41/71/34 43/72/34 42/73/34
f 42/73/35 43/72/35 47/74/35 46/75/35
f 46/75/36 47/74/36 45/76/36 44/77/36
f 44/77/37 45/76/37 41/78/37 40/79/37
f 42/80/38 46/75/38 44/77/38 40/81/38
f 47/74/39 43/82/39 41/83/39 45/76/39
o Cone.005_Cone.007
v -0.982878 2.018500 1.017122
v 0.961665 2.018500 1.038335
v 0.982878 2.018500 2.982878
v -0.961665 2.018500 2.961665
v 0.000000 3.418500 2.000000
vt 0.250000 0.490000
vt 0.250000 0.250000
vt 0.490000 0.250000
vt 0.250000 0.010000
vt 0.750000 0.490000
vt 0.990000 0.250000
vt 0.750000 0.010000
vt 0.510000 0.250000
vt 0.010000 0.250000
vn 0.0090 0.5703 -0.8214
vn 0.8214 0.5703 -0.0090
vn 0.0000 -1.0000 0.0000
vn -0.0090 0.5703 0.8214
vn -0.8214 0.5703 0.0090
usemtl None
s off
f 48/84/40 52/85/40 49/86/40
f 49/86/41 52/85/41 50/87/41
f 48/88/42 49/89/42 50/90/42 51/91/42
f 50/87/43 52/85/43 51/92/43
f 51/92/44 52/85/44 48/84/44
o Cube.006_Cube.007
v -1.000000 0.015033 3.000000
v -1.000000 2.015033 3.000000
v -1.000000 0.015033 1.000000
v -1.000000 2.015033 1.000000
v 1.000000 0.015033 3.000000
v 1.000000 2.015033 3.000000
v 1.000000 0.015033 1.000000
v 1.000000 2.015033 1.000000
vt 0.375000 0.000000
vt 0.625000 0.000000
vt 0.625000 0.250000
vt 0.375000 0.250000
vt 0.625000 0.500000
vt 0.375000 0.500000
vt 0.625000 0.750000
vt 0.375000 0.750000
vt 0.625000 1.000000
vt 0.375000 1.000000
vt 0.125000 0.500000
vt 0.125000 0.750000
vt 0.875000 0.500000
vt 0.875000 0.750000
vn -1.0000 0.0000 0.0000
vn 0.0000 0.0000 -1.0000
vn 1.0000 0.0000 0.0000
vn 0.0000 0.0000 1.0000
vn 0.0000 -1.0000 0.0000
vn 0.0000 1.0000 0.0000
usemtl None
s off
f 53/93/45 54/94/45 56/95/45 55/96/45
f 55/96/46 56/95/46 60/97/46 59/98/46
f 59/98/47 60/97/47 58/99/47 57/100/47
f 57/100/48 58/99/48 54/101/48 53/102/48
f 55/103/49 59/98/49 57/100/49 53/104/49
f 60/97/50 56/105/50 54/106/50 58/99/50
o Cube.007_Cube.008
v 0.414359 0.200000 -3.046410
v 0.414359 1.800000 -3.046410
v 3.185641 0.200000 -4.646410
v 3.185641 1.800000 -4.646410
v 0.814359 0.200000 -2.353590
v 0.814359 1.800000 -2.353590
v 3.585641 0.200000 -3.953590
v 3.585641 1.800000 -3.953590
vt 0.375000 0.000000
vt 0.625000 0.000000
vt 0.625000 0.250000
vt 0.375000 0.250000
vt 0.625000 0.500000
vt 0.375000 0.500000
vt 0.625000 0.750000
vt 0.375000 0.750000
vt 0.625000 1.000000
vt 0.375000 1.000000
vt 0.125000 0.500000
vt 0.125000 0.750000
vt 0.875000 0.500000
vt 0.875000 0.750000
vn -0.5000 0.0000 -0.8660
vn 0.8660 0.0000 -0.5000
vn 0.5000 0.0000 0.8660
vn -0.8660 0.0000 0.5000
vn 0.0000 -1.0000 -0.0000
vn 0.0000 1.0000 0.0000
usemtl None
s off
f 61/107/51 62/108/51 64/109/51 63/110/51
f 63/110/52 64/109/52 68/111/52 67/112/52
f 67/112/53 68/111/53 66/113/53 65/114/53
f 65/114/54 66/113/54 62/115/54 61/116/54
f 63/117/55 67/112/55 65/114/55 61/118/55
f 68/111/56 64/119/56 62/120/56 66/113/56
o Cube.008_Cube.009
v 6.185641 0.200000 -2.353590
v 6.185641 1.800000 -2.353590
v 3.414359 0.200000 -3.953590
v 3.414359 1.800000 -3.953590
v 6.585641 0.200000 -3.046410
v 6.585641 1.800000 -3.046410
v 3.814359 0.200000 -4.646410
v 3.814359 1.800000 -4.646410
vt 0.375000 0.000000
vt 0.625000 0.000000
vt 0.625000 0.250000
vt 0.375000 0.250000
vt 0.625000 0.500000
vt 0.375000 0.500000
vt 0.625000 0.750000
vt 0.375000 0.750000
vt 0.625000 1.000000
vt 0.375000 1.000000
vt 0.125000 0.500000
vt 0.125000 0.750000
vt 0.875000 0.500000
vt 0.875000 0.750000
vn -0.5000 0.0000 0.8660
vn -0.8660 0.0000 -0.5000
vn 0.5000 0.0000 -0.8660
vn 0.8660 0.0000 0.5000
vn 0.0000 -1.0000 -0.0000
vn 0.0000 1.0000 0.0000
usemtl None
s off
f 69/121/57 70/122/57 72/123/57 71/124/57
f 71/124/58 72/123/58 76/125/58 75/126/58
f 75/126/59 76/125/59 74/127/59 73/128/59
f 73/128/60 74/127/60 70/129/60 69/130/60
f 71/131/61 75/126/61 73/128/61 69/132/61
f 76/125/62 72/133/62 70/134/62 74/127/62
o Cone.001_Cone.008
v -0.982878 2.018500 -2.982878
v 0.961665 2.018500 -2.961665
v 0.982878 2.018500 -1.017122
v -0.961665 2.018500 -1.038335
v 0.000000 3.418500 -2.000000
vt 0.250000 0.490000
vt 0.250000 0.250000
vt 0.490000 0.250000
vt 0.250000 0.010000
vt 0.750000 0.490000
vt 0.990000 0.250000
vt 0.750000 0.010000
vt 0.510000 0.250000
vt 0.010000 0.250000
vn 0.0090 0.5703 -0.8214
vn 0.8214 0.5703 -0.0090
vn 0.0000 -1.0000 0.0000
vn -0.0090 0.5703 0.8214
vn -0.8214 0.5703 0.0090
usemtl Material.002
s off
f 77/135/63 81/136/63 78/137/63
f 78/137/64 81/136/64 79/138/64
f 77/139/65 78/140/65 79/141/65 80/142/65
f 79/138/66 81/136/66 80/143/66
f 80/143/67 81/136/67 77/135/67
o Cube.002_Cube.012
v -1.000000 0.015030 -1.000000
v -1.000000 2.015030 -1.000000
v -1.000000 0.015030 -3.000000
v -1.000000 2.015030 -3.000000
v 1.000000 0.015030 -1.000000
v 1.000000 2.015030 -1.000000
v 1.000000 0.015030 -3.000000
v 1.000000 2.015030 -3.000000
vt 0.375000 0.000000
vt 0.625000 0.000000
vt 0.625000 0.250000
vt 0.375000 0.250000
vt 0.625000 0.500000
vt 0.375000 0.500000
vt 0.625000 0.750000
vt 0.375000 0.750000
vt 0.625000 1.000000
vt 0.375000 1.000000
vt 0.125000 0.500000
vt 0.125000 0.750000
vt 0.875000 0.500000
vt 0.875000 0.750000
vn -1.0000 0.0000 0.0000
vn 0.0000 0.0000 -1.0000
vn 1.0000 0.0000 0.0000
vn 0.0000 0.0000 1.0000
vn 0.0000 -1.0000 0.0000
vn 0.0000 1.0000 0.0000
usemtl None
s off
f 82/144/68 83/145/68 85/146/68 84/147/68
f 84/147/69 85/146/69 89/148/69 88/149/69
f 88/149/70 89/148/70 87/150/70 86/151/70
f 86/151/71 87/150/71 83/152/71 82/153/71
f 84/154/72 88/149/72 86/151/72 82/155/72
f 89/148/73 85/156/73 83/157/73 87/150/73
o Cone.002_Cone.009
v 2.517122 2.018500 3.517122
v 4.489950 2.018500 3.510051
v 4.482878 2.018500 5.482879
v 2.510051 2.018500 5.489949
v 3.500000 3.418500 4.500000
vt 0.250000 0.490000
vt 0.250000 0.250000
vt 0.490000 0.250000
vt 0.250000 0.010000
vt 0.750000 0.490000
vt 0.990000 0.250000
vt 0.750000 0.010000
vt 0.510000 0.250000
vt 0.010000 0.250000
vn -0.0029 0.5760 -0.8175
vn 0.8175 0.5760 0.0029
vn 0.0000 -1.0000 0.0000
vn 0.0029 0.5760 0.8175
vn -0.8175 0.5760 -0.0029
usemtl None
s off
f 90/158/74 94/159/74 91/160/74
f 91/160/75 94/159/75 92/161/75
f 90/162/76 91/163/76 92/164/76 93/165/76
f 92/161/77 94/159/77 93/166/77
f 93/166/78 94/159/78 90/158/78
o Cube.003_Cube.013
v 2.500000 0.015033 5.500000
v 2.500000 2.015033 5.500000
v 2.500000 0.015033 3.500000
v 2.500000 2.015033 3.500000
v 4.500000 0.015033 5.500000
v 4.500000 2.015033 5.500000
v 4.500000 0.015033 3.500000
v 4.500000 2.015033 3.500000
vt 0.375000 0.000000
vt 0.625000 0.000000
vt 0.625000 0.250000
vt 0.375000 0.250000
vt 0.625000 0.500000
vt 0.375000 0.500000
vt 0.625000 0.750000
vt 0.375000 0.750000
vt 0.625000 1.000000
vt 0.375000 1.000000
vt 0.125000 0.500000
vt 0.125000 0.750000
vt 0.875000 0.500000
vt 0.875000 0.750000
vn -1.0000 0.0000 0.0000
vn 0.0000 0.0000 -1.0000
vn 1.0000 0.0000 0.0000
vn 0.0000 0.0000 1.0000
vn 0.0000 -1.0000 0.0000
vn 0.0000 1.0000 0.0000
usemtl None
s off
f 95/167/79 96/168/79 98/169/79 97/170/79
f 97/170/80 98/169/80 102/171/80 101/172/80
f 101/172/81 102/171/81 100/173/81 99/174/81
f 99/174/82 100/173/82 96/175/82 95/176/82
f 97/177/83 101/172/83 99/174/83 95/178/83
f 102/171/84 98/179/84 96/180/84 100/173/84
o Cube.009_Cube.014
v -0.400000 0.200000 1.360000
v -0.400000 1.800000 1.360000
v -0.400000 0.200000 -1.360000
v -0.400000 1.800000 -1.360000
v 0.400000 0.200000 1.360000
v 0.400000 1.800000 1.360000
v 0.400000 0.200000 -1.360000
v 0.400000 1.800000 -1.360000
vt 0.375000 0.000000
vt 0.625000 0.000000
vt 0.625000 0.250000
vt 0.375000 0.250000
vt 0.625000 0.500000
vt 0.375000 0.500000
vt 0.625000 0.750000
vt 0.375000 0.750000
vt 0.625000 1.000000
vt 0.375000 1.000000
vt 0.125000 0.500000
vt 0.125000 0.750000
vt 0.875000 0.500000
vt 0.875000 0.750000
vn -1.0000 0.0000 0.0000
vn 0.0000 0.0000 -1.0000
vn 1.0000 0.0000 0.0000
vn 0.0000 0.0000 1.0000
vn 0.0000 -1.0000 0.0000
vn 0.0000 1.0000 0.0000
usemtl None
s off
f 103/181/85 104/182/85 106/183/85 105/184/85
f 105/184/86 106/183/86 110/185/86 109/186/86
f 109/186/87 110/185/87 108/187/87 107/188/87
f 107/188/88 108/187/88 104/189/88 103/190/88
f 105/191/89 109/186/89 107/188/89 103/192/89
f 110/185/90 106/193/90 104/194/90 108/187/90
o Cube.010_Cube.015
v 3.414359 0.200000 3.953590
v 3.414359 1.800000 3.953590
v 6.185641 0.200000 2.353590
v 6.185641 1.800000 2.353590
v 3.814359 0.200000 4.646410
v 3.814359 1.800000 4.646410
v 6.585641 0.200000 3.046410
v 6.585641 1.800000 3.046410
vt 0.375000 0.000000
vt 0.625000 0.000000
vt 0.625000 0.250000
vt 0.375000 0.250000
vt 0.625000 0.500000
vt 0.375000 0.500000
vt 0.625000 0.750000
vt 0.375000 0.750000
vt 0.625000 1.000000
vt 0.375000 1.000000
vt 0.125000 0.500000
vt 0.125000 0.750000
vt 0.875000 0.500000
vt 0.875000 0.750000
vn -0.5000 0.0000 -0.8660
vn 0.8660 0.0000 -0.5000
vn 0.5000 0.0000 0.8660
vn -0.8660 0.0000 0.5000
vn 0.0000 -1.0000 0.0000
vn 0.0000 1.0000 0.0000
usemtl None
s off
f 111/195/91 112/196/91 114/197/91 113/198/91
f 113/198/92 114/197/92 118/199/92 117/200/92
f 117/200/93 118/199/93 116/201/93 115/202/93
f 115/202/94 116/201/94 112/203/94 111/204/94
f 113/205/95 117/200/95 115/202/95 111/206/95
f 118/199/96 114/207/96 112/208/96 116/201/96
o Cube.011_Cube.016
v 3.185641 0.200000 4.646410
v 3.185641 1.800000 4.646410
v 0.414359 0.200000 3.046410
v 0.414359 1.800000 3.046410
v 3.585641 0.200000 3.953590
v 3.585641 1.800000 3.953590
v 0.814359 0.200000 2.353590
v 0.814359 1.800000 2.353590
vt 0.375000 0.000000
vt 0.625000 0.000000
vt 0.625000 0.250000
vt 0.375000 0.250000
vt 0.625000 0.500000
vt 0.375000 0.500000
vt 0.625000 0.750000
vt 0.375000 0.750000
vt 0.625000 1.000000
vt 0.375000 1.000000
vt 0.125000 0.500000
vt 0.125000 0.750000
vt 0.875000 0.500000
vt 0.875000 0.750000
vn -0.5000 0.0000 0.8660
vn -0.8660 0.0000 -0.5000
vn 0.5000 0.0000 -0.8660
vn 0.8660 0.0000 0.5000
vn 0.0000 -1.0000 0.0000
vn 0.0000 1.0000 0.0000
usemtl None
s off
f 119/209/97 120/210/97 122/211/97 121/212/97
f 121/212/98 122/211/98 126/213/98 125/214/98
f 125/214/99 126/213/99 124/215/99 123/216/99
f 123/216/100 124/215/100 120/217/100 119/218/100
f 121/219/101 125/214/101 123/216/101 119/220/101
f 126/213/102 122/221/102 120/222/102 124/215/102
o Cone.006_Cone.010
v 2.517122 5.014717 -0.982878
v 4.461665 5.014717 -0.961665
v 4.482878 5.014717 0.982878
v 2.538335 5.014717 0.961665
v 3.500000 6.414717 0.000000
vt 0.250000 0.490000
vt 0.250000 0.250000
vt 0.490000 0.250000
vt 0.250000 0.010000
vt 0.750000 0.490000
vt 0.990000 0.250000
vt 0.750000 0.010000
vt 0.510000 0.250000
vt 0.010000 0.250000
vn 0.0090 0.5703 -0.8214
vn 0.8214 0.5703 -0.0090
vn 0.0000 -1.0000 0.0000
vn -0.0090 0.5703 0.8214
vn -0.8214 0.5703 0.0090
usemtl None
s off
f 127/223/103 131/224/103 128/225/103
f 128/225/104 131/224/104 129/226/104
f 127/227/105 128/228/105 129/229/105 130/230/105
f 129/226/106 131/224/106 130/231/106
f 130/231/107 131/224/107 127/223/107
o Cube.012_Cube.017
v 2.500000 0.000000 1.000000
v 2.500000 5.000000 1.000000
v 2.500000 0.000000 -1.000000
v 2.500000 5.000000 -1.000000
v 4.500000 0.000000 1.000000
v 4.500000 5.000000 1.000000
v 4.500000 0.000000 -1.000000
v 4.500000 5.000000 -1.000000
vt 0.375000 0.000000
vt 0.625000 0.000000
vt 0.625000 0.250000
vt 0.375000 0.250000
vt 0.625000 0.500000
vt 0.375000 0.500000
vt 0.625000 0.750000
vt 0.375000 0.750000
vt 0.625000 1.000000
vt 0.375000 1.000000
vt 0.125000 0.500000
vt 0.125000 0.750000
vt 0.875000 0.500000
vt 0.875000 0.750000
vn -1.0000 0.0000 0.0000
vn 0.0000 0.0000 -1.0000
vn 1.0000 0.0000 0.0000
vn 0.0000 0.0000 1.0000
vn 0.0000 -1.0000 0.0000
vn 0.0000 1.0000 0.0000
usemtl None
s off
f 132/232/108 133/233/108 135/234/108 134/235/108
f 134/235/109 135/234/109 139/236/109 138/237/109
f 138/237/110 139/236/110 137/238/110 136/239/110
f 136/239/111 137/238/111 133/240/111 132/241/111
f 134/242/112 138/237/112 136/239/112 132/243/112
f 139/236/113 135/244/113 133/245/113 137/238/113
